<svg class="img-fluid" id="outputsvg" xmlns="http://www.w3.org/2000/svg" style="transform: matrix(1, 0, 0, 1, 2, 43.0001); transform-origin: 50% 50%; cursor: move; max-height: none; transition: none;" width="710" height="290" viewBox="0 0 7100 2900"><g id="l62rBgEdMW3Hob7Ne2OZu87" fill="rgb(0,0,0)" style="transform: none;"><g style="transform: none;"><path id="p8SV9i0r6" d="M5280 2769 c-173 -8 -266 -30 -395 -93 -49 -25 -121 -69 -160 -99 -87 -66 -206 -203 -241 -276 -15 -31 -31 -63 -35 -71 -22 -39 -42 -91 -62 -160 -19 -65 -22 -99 -22 -260 0 -170 3 -193 27 -282 98 -350 384 -617 742 -690 214 -44 475 1 662 113 184 111 324 290 395 504 23 70 23 74 27 693 l3 622 -218 2 c-399 4 -577 3 -723 -3z m533 -384 l22 -6 -3 -367 c-2 -202 -8 -390 -13 -418 -33 -172 -171 -316 -349 -367 -249 -71 -493 17 -629 227 -115 176 -135 446 -45 625 39 79 124 176 191 219 99 63 144 75 313 81 242 9 488 12 513 6z"></path><path id="pC5aLTjx9" d="M202 1803 l3 -968 188 -3 c185 -2 189 -2 194 19 4 15 11 19 27 14 113 -33 141 -37 281 -38 141 -2 155 0 234 27 90 30 139 57 209 113 l42 35 63 -48 c73 -55 137 -87 227 -111 93 -24 349 -24 440 1 211 58 368 210 400 388 7 37 10 313 8 795 l-3 738 -192 3 -192 2 -3 -672 -3 -673 -25 -49 c-50 -97 -144 -155 -252 -156 -118 0 -216 61 -270 168 l-23 47 -3 668 -3 667 -192 -2 -192 -3 -2 -658 -2 -658 -24 -52 c-51 -111 -126 -167 -236 -175 -97 -7 -161 17 -226 82 -89 88 -85 54 -85 808 l0 658 -195 0 -195 0 2 -967z"></path><path id="pMa1pYyK3" d="M2759 2758 c0 -7 1 -258 3 -558 1 -300 3 -731 3 -958 l0 -412 190 2 190 3 3 968 2 967 -195 0 c-149 0 -195 -3 -196 -12z"></path><path id="pAwGP3gRr" d="M3402 1821 c-2 -523 -1 -959 3 -971 6 -19 14 -20 194 -20 132 0 191 4 199 12 7 7 12 27 12 45 0 26 4 33 19 33 11 0 22 -4 26 -9 9 -16 113 -51 194 -66 80 -16 521 -20 571 -6 23 6 20 12 -81 118 -73 77 -119 137 -153 196 l-47 85 -32 -9 c-42 -12 -121 -11 -187 1 -144 27 -261 124 -315 260 -5 15 -12 276 -15 650 l-5 625 -190 3 -190 2 -3 -949z"></path><path id="pHBhZmrMk" d="M6470 1810 c0 -528 0 -963 0 -967 0 -5 82 -8 183 -8 l182 0 5 200 c3 110 7 545 8 968 l2 767 -190 0 -190 0 0 -960z"></path><path id="pMM8Iu3Ai" d="M2887 576 c-114 -31 -189 -122 -195 -236 -9 -155 100 -270 256 -270 145 1 252 110 252 258 0 106 -55 189 -154 233 -60 26 -105 30 -159 15z"></path><path id="perIS9y8G" d="M6512 559 c-42 -21 -102 -83 -102 -105 0 -7 -7 -25 -15 -40 -19 -38 -19 -128 1 -187 19 -56 97 -131 152 -147 119 -33 242 11 298 106 77 130 33 300 -95 366 -70 36 -173 39 -239 7z"></path></g></g></svg>